<svg version="1.1" xmlns="http://www.w3.org/2000/svg" xmlns:xlink="http://www.w3.org/1999/xlink" width="500" height="321" viewBox="0,0,256,164.35156"><g fill="none" fill-rule="nonzero" stroke="none" stroke-width="1" stroke-linecap="butt" stroke-linejoin="miter" stroke-miterlimit="10" stroke-dasharray="" stroke-dashoffset="0" font-family="none" font-weight="none" font-size="none" text-anchor="none" style="mix-blend-mode: normal"><g transform="translate(0.00003,-5.08682) scale(0.512,0.512)"><path d="M250,296.56c107.082,0 193.89,-5.068 193.89,-11.32c0,-6.252 -86.808,-11.32 -193.89,-11.32c-107.083,0 -193.8901,5.068 -193.8901,11.32c0,6.252 86.8071,11.32 193.8901,11.32z" fill="#ecc5c5"></path><path d="M157.61,116.44l-0.92,-0.39c0.723,-1.587 1.211,-3.271 1.45,-5l1,0.11c-0.251,1.826 -0.766,3.604 -1.53,5.28zM157.22,105c-0.931,-2.078 -2.378,-3.883 -4.204,-5.2429c-1.825,-1.3602 -3.969,-2.23 -6.226,-2.5266l0.16,-1c2.421,0.3219 4.719,1.2583 6.676,2.7199c1.957,1.4616 3.508,3.3996 4.504,5.6296z" fill="#da2626"></path><path d="M152,126.5l-9.86,4.5l-0.44,-1c-0.674,-1.359 -1.111,-2.823 -1.29,-4.33c-0.095,-1.227 0.037,-2.461 0.39,-3.64c0.854,-2.348 1.856,-4.639 3,-6.86c0.88,-1.78 1.103,-3.143 0.67,-4.09c-0.161,-0.419 -0.409,-0.799 -0.728,-1.114c-0.319,-0.316 -0.701,-0.56 -1.122,-0.716c-0.982,-0.249 -2.022,-0.117 -2.91,0.37c-0.571,0.243 -1.086,0.6 -1.514,1.048c-0.428,0.449 -0.76,0.981 -0.976,1.562c-0.433,1.167 -0.3,2.813 0.4,4.94l-10.62,3.32c-1.328,-3.46 -1.328,-7.29 0,-10.75c1.333,-3.333 4.407,-6.09 9.22,-8.27c3.76,-1.7199 7.16,-2.3099 10.19,-1.7999c1.857,0.2242 3.623,0.9279 5.125,2.0409c1.503,1.113 2.69,2.598 3.445,4.309c0.675,1.504 0.924,3.164 0.72,4.8c-0.483,2.555 -1.396,5.01 -2.7,7.26c-0.877,1.491 -1.48,3.127 -1.78,4.83c-0.042,1.243 0.226,2.477 0.78,3.59zM143,133.74l10.54,-4.74l4.23,9.29l-10.54,4.71z" fill="#da2626"></path><path d="M127.64,148.731l-5,6.799l-0.64,-0.53c-0.975,-0.676 -1.831,-1.511 -2.53,-2.47c-0.532,-0.799 -0.908,-1.691 -1.11,-2.63c-0.323,-1.921 -0.514,-3.862 -0.57,-5.81c-0.08,-1.55 -0.45,-2.56 -1.1,-3c-0.273,-0.231 -0.594,-0.401 -0.939,-0.496c-0.346,-0.095 -0.708,-0.113 -1.061,-0.053c-0.765,0.2 -1.424,0.687 -1.84,1.359c-0.298,0.381 -0.515,0.819 -0.637,1.287c-0.122,0.468 -0.147,0.956 -0.073,1.433c0.347,1.279 1.102,2.41 2.15,3.22l-6,6.31c-2.222,-1.853 -3.685,-4.458 -4.11,-7.32c-0.367,-2.76 0.68,-5.81 3.14,-9.15c1.525,-2.289 3.708,-4.063 6.26,-5.09c1.35,-0.557 2.822,-0.753 4.271,-0.567c1.448,0.186 2.823,0.747 3.989,1.627c1.034,0.768 1.837,1.806 2.32,3c0.642,1.935 0.953,3.963 0.92,6c-0.035,1.36 0.175,2.715 0.62,4c0.462,0.845 1.129,1.56 1.94,2.081zM124.27,157.09l5.36,-7.28l6.42,4.731l-5.36,7.28z" fill="#da2626"></path><path d="M234.09,281.64c-0.826,0.001 -1.635,-0.225 -2.341,-0.654c-0.705,-0.429 -1.279,-1.043 -1.659,-1.776c-4,-7.76 -9.07,-16.87 -18.15,-26.73c-0.523,-0.566 -0.89,-1.258 -1.065,-2.008c-0.176,-0.75 -0.153,-1.533 0.065,-2.272c3.37,-11.71 8.67,-27.72 8.72,-27.88c0.169,-0.578 0.453,-1.117 0.835,-1.583c0.382,-0.467 0.854,-0.851 1.388,-1.131c0.534,-0.28 1.118,-0.45 1.719,-0.499c0.601,-0.049 1.205,0.023 1.778,0.212c0.572,0.19 1.1,0.492 1.553,0.89c0.453,0.398 0.821,0.883 1.082,1.426c0.261,0.544 0.411,1.134 0.439,1.736c0.028,0.602 -0.065,1.204 -0.274,1.769c-0.05,0.15 -4.62,13.94 -7.93,25.15c7.056,8.139 13.045,17.145 17.82,26.8c0.351,0.686 0.52,1.45 0.491,2.219c-0.029,0.77 -0.255,1.519 -0.657,2.176c-0.401,0.658 -0.964,1.201 -1.636,1.578c-0.671,0.377 -1.428,0.576 -2.198,0.577z" fill="#da2626"></path><path d="M241.56,285.24h-34.79l18.44,-10.46l15.45,0.6z" fill="#263238"></path><path d="M238.239,243.093c15.835,-4.95 25.345,-19.604 21.242,-32.729c-4.103,-13.126 -20.266,-19.753 -36.101,-14.803c-15.835,4.95 -25.346,19.604 -21.242,32.729c4.103,13.126 20.266,19.753 36.101,14.803z" fill="#263238"></path><path d="M151.65,203c-1.036,-0.004 -2.038,-0.366 -2.837,-1.025c-0.799,-0.658 -1.346,-1.572 -1.549,-2.588c-0.202,-1.015 -0.047,-2.069 0.439,-2.984c0.485,-0.914 1.272,-1.632 2.227,-2.033c0.777,-0.325 1.459,-0.841 1.984,-1.5c0.524,-0.659 0.874,-1.44 1.016,-2.27c0.09,-0.977 0.497,-1.897 1.16,-2.619c0.663,-0.723 1.545,-1.208 2.51,-1.381c1.114,-0.227 2.215,-0.511 3.3,-0.85c6.08,-1.77 13.61,-4 37.31,2.66c23.38,-13.07 23.65,-37.59 23.65,-38.65c0,-1.189 0.47,-2.329 1.307,-3.172c0.838,-0.843 1.975,-1.32 3.163,-1.328c1.184,0 2.32,0.467 3.161,1.301c0.841,0.833 1.318,1.965 1.329,3.149c0,1.31 -0.14,32.09 -30,47.5c-1.018,0.528 -2.2,0.642 -3.3,0.32c-22.6,-6.52 -29,-4.66 -34.07,-3.17l-1.38,0.4c-0.667,1.767 -1.689,3.379 -3.003,4.736c-1.314,1.357 -2.892,2.43 -4.637,3.154c-0.564,0.236 -1.169,0.355 -1.78,0.35z" fill="#263238"></path><path d="M204.08,170.89c-8.51,-33.82 -31.18,-121.0598 41.47,-126.3898c65.18,-4.79 83.06,81.9998 87.41,111.9998c2.178,15.18 3.36,30.486 3.54,45.82c0.083,7.757 -2.546,15.299 -7.431,21.324c-4.886,6.025 -11.723,10.155 -19.329,11.676c-35.51,7.22 -69.11,8.24 -91.75,-0.69c-2.974,-1.2 -5.479,-3.329 -7.143,-6.071c-1.664,-2.741 -2.396,-5.947 -2.087,-9.139c0.87,-9.68 0.89,-26.42 -4.68,-48.53z" fill="#da2626"></path><path d="M333,156.52c-4.1,-28.32 -20.22,-106.9999 -76.66,-111.9999c-3.22,-0.3264 -6.464,0.3076 -9.323,1.822c-2.86,1.5144 -5.208,3.8415 -6.747,6.688c-2.52,4.88 -2.44,10.79 1.33,16.64c12.4,19.33 42.07,85.9999 37.59,122.3299c-2,16.53 -12.41,29.73 -3.39,48.31c11.402,-0.998 22.735,-2.668 33.94,-5c7.606,-1.521 14.443,-5.651 19.329,-11.676c4.886,-6.025 7.514,-13.567 7.431,-21.324c-0.168,-15.323 -1.337,-30.619 -3.5,-45.79z" fill="#000000" opacity="0.1"></path><path d="M323.24,202.79c-0.117,0 -0.23,-0.046 -0.315,-0.129c-0.084,-0.082 -0.132,-0.194 -0.135,-0.311c-0.17,-15.315 -1.349,-30.601 -3.53,-45.76c-10.8,-74.6603 -39.87,-112.4103 -84.1,-109.1503c-0.059,0.0041 -0.118,-0.0035 -0.174,-0.0225c-0.057,-0.0189 -0.108,-0.0487 -0.153,-0.0877c-0.045,-0.0391 -0.081,-0.0865 -0.107,-0.1397c-0.027,-0.0531 -0.042,-0.1109 -0.046,-0.1701c-0.005,-0.1187 0.035,-0.2351 0.114,-0.3246c0.078,-0.0895 0.188,-0.1452 0.306,-0.1554c44.75,-3.3 74.17,34.72 85,109.9203c2.179,15.2 3.362,30.526 3.54,45.88c0,0.119 -0.047,0.234 -0.132,0.318c-0.084,0.084 -0.198,0.132 -0.318,0.132z" fill="#263238"></path><path d="M322.561,245.475c15.835,-4.951 25.345,-19.604 21.242,-32.729c-4.103,-13.126 -20.266,-19.753 -36.101,-14.803c-15.835,4.95 -25.345,19.604 -21.242,32.729c4.103,13.126 20.266,19.753 36.101,14.803z" fill="#263238"></path><path d="M325.3,281.641c-0.826,0.002 -1.636,-0.224 -2.342,-0.653c-0.705,-0.429 -1.279,-1.044 -1.658,-1.777c-4,-7.76 -9.07,-16.87 -18.16,-26.73c-0.519,-0.569 -0.883,-1.261 -1.058,-2.01c-0.175,-0.749 -0.155,-1.531 0.058,-2.27c3.38,-11.71 8.67,-27.72 8.73,-27.88c0.185,-0.559 0.479,-1.076 0.863,-1.521c0.385,-0.446 0.854,-0.811 1.38,-1.075c0.526,-0.264 1.099,-0.422 1.686,-0.465c0.587,-0.043 1.177,0.03 1.736,0.216c0.559,0.185 1.076,0.478 1.521,0.863c0.445,0.385 0.811,0.854 1.075,1.38c0.264,0.526 0.422,1.099 0.465,1.686c0.042,0.587 -0.031,1.177 -0.216,1.736c-0.05,0.15 -4.61,13.94 -7.92,25.15c7.057,8.136 13.042,17.142 17.81,26.8c0.351,0.685 0.52,1.449 0.491,2.219c-0.029,0.769 -0.255,1.519 -0.656,2.176c-0.402,0.657 -0.965,1.2 -1.637,1.578c-0.671,0.377 -1.428,0.576 -2.198,0.577z" fill="#da2626"></path><path d="M315.88,144.911c-1.003,0 -1.977,-0.335 -2.767,-0.953c-0.791,-0.618 -1.351,-1.482 -1.593,-2.456c-0.242,-0.973 -0.15,-2 0.259,-2.915c0.41,-0.916 1.114,-1.668 2.001,-2.136c0.86,-0.46 20.39,-11.13 25.87,-36.7704c-13,-5.44 -36.42,-17.73 -41.54,-23.91c-0.504,-0.5976 -0.848,-1.3132 -1,-2.08c-0.591,-3.6926 -0.247,-7.4746 1,-11l-2.36,-4.56c-0.546,-1.0609 -0.649,-2.2953 -0.285,-3.4318c0.364,-1.1365 1.164,-2.0819 2.225,-2.6282c1.061,-0.5464 2.296,-0.6489 3.432,-0.2851c1.137,0.3638 2.082,1.1642 2.628,2.2251l3.39,6.56c0.365,0.6865 0.544,1.4565 0.52,2.2336c-0.025,0.7771 -0.252,1.5342 -0.66,2.1964c-0.915,1.8277 -1.303,3.8742 -1.12,5.91c5.77,5.21 29,17.54 40.43,21.77c0.969,0.359 1.784,1.042 2.307,1.9332c0.523,0.8912 0.722,1.9358 0.563,2.9568c-5.07,32.7704 -30.14,46.2704 -31.2,46.8304c-0.648,0.338 -1.369,0.513 -2.1,0.51z" fill="#263238"></path><path d="M301.57,75.15c-0.403,-0.0019 -0.799,-0.1122 -1.145,-0.3195c-0.346,-0.2073 -0.631,-0.5038 -0.823,-0.8586c-0.192,-0.3548 -0.285,-0.7548 -0.27,-1.158c0.016,-0.4032 0.139,-0.7948 0.358,-1.1339c0.16,-0.24 3.86,-5.83 9.5,-7.34c0.284,-0.0761 0.581,-0.0956 0.873,-0.0571c0.292,0.0384 0.573,0.1339 0.828,0.2811c0.255,0.1472 0.478,0.3431 0.657,0.5767c0.179,0.2335 0.311,0.5 0.387,0.7843c0.076,0.2843 0.096,0.5809 0.057,0.8727c-0.038,0.2918 -0.134,0.5732 -0.281,0.8281c-0.147,0.2549 -0.343,0.4783 -0.577,0.6575c-0.233,0.1791 -0.5,0.3106 -0.784,0.3867c-3.93,1.06 -6.88,5.42 -6.9,5.46c-0.203,0.3133 -0.482,0.5708 -0.81,0.7489c-0.329,0.1781 -0.696,0.2713 -1.07,0.2711z" fill="#263238"></path><path d="M332.77,285.24h-34.79l18.44,-10.46l15.45,0.6z" fill="#263238"></path><path d="M259.918,151.253c13.159,-1.165 22.976,-11.711 21.927,-23.556c-1.048,-11.844 -12.566,-20.501 -25.725,-19.336c-13.159,1.165 -22.977,11.711 -21.928,23.556c1.049,11.844 12.566,20.501 25.726,19.336z" fill="#ffffff"></path><path d="M255.448,143.447c3.49,-0.994 4.852,-6.95 3.042,-13.302c-1.81,-6.353 -6.106,-10.697 -9.595,-9.703c-3.49,0.994 -4.852,6.95 -3.042,13.303c1.809,6.352 6.105,10.696 9.595,9.702z" fill="#263238"></path><path d="M230.8,133.86c15.1,-1.94 45,-10.47 49.93,-13.91c-3.88,-11.36 -22,-21.08 -38.12,-15.6c-14.61,4.93 -11.81,29.51 -11.81,29.51z" fill="#263238"></path><path d="M233.73,141.16c18.75,-3.56 43.12,-9.54 50.09,-13.37c-0.43,12.22 -4,24.61 -23.12,28.8c-15.64,3.41 -26.97,-15.43 -26.97,-15.43z" fill="#263238"></path><path d="M218.285,152.907c6.78,-4.486 7.674,-15.079 1.997,-23.66c-5.678,-8.58 -15.777,-11.9 -22.557,-7.414c-6.78,4.486 -7.673,15.078 -1.996,23.659c5.678,8.581 15.776,11.901 22.556,7.415z" fill="#ffffff"></path><path d="M208.34,137.68c1.13,5.36 0.15,9.83 -2.2,10c-2.35,0.17 -5.17,-4.06 -6.31,-9.42c-1.14,-5.36 -0.15,-9.82 2.19,-10c2.34,-0.18 5.18,4.06 6.32,9.42z" fill="#263238"></path><path d="M189.75,135.63c10.13,1.19 30.25,-0.14 33.59,-2c-2.47,-9.63 -14.45,-20.63 -25.34,-19.23c-9.82,1.26 -8.25,21.23 -8.25,21.23z" fill="#263238"></path><path d="M191.63,141.94c12.59,0.57 29,0.25 33.68,-1.52c-0.43,9.61 -2.95,18.77 -15.81,18.62c-10.5,-0.12 -17.87,-17.1 -17.87,-17.1z" fill="#263238"></path><path d="M264.09,98.3004c-11.443,0.0626 -22.634,-3.3552 -32.09,-9.8c-0.948,-0.7174 -1.572,-1.7821 -1.735,-2.9598c-0.164,-1.1777 0.148,-2.372 0.865,-3.3202c0.718,-0.9481 1.782,-1.5724 2.96,-1.7356c1.178,-0.1631 2.372,0.1482 3.32,0.8656c10.583,6.9022 23.424,9.4495 35.84,7.11c0.579,-0.1096 1.173,-0.1043 1.749,0.0158c0.577,0.1201 1.124,0.3525 1.611,0.684c0.486,0.3315 0.903,0.7556 1.225,1.2481c0.323,0.4924 0.546,1.0437 0.655,1.6221c0.11,0.5785 0.105,1.1729 -0.016,1.7493c-0.12,0.5764 -0.352,1.1235 -0.684,1.6101c-0.331,0.4866 -0.755,0.9031 -1.248,1.2258c-0.492,0.3227 -1.043,0.5452 -1.622,0.6548c-3.57,0.6795 -7.196,1.0244 -10.83,1.03z" fill="#263238"></path><path d="M183.88,90.5703c-0.718,-0.0036 -1.424,-0.179 -2.061,-0.5115c-0.636,-0.3325 -1.184,-0.8124 -1.597,-1.3997c-0.413,-0.5873 -0.68,-1.2649 -0.777,-1.9762c-0.098,-0.7113 -0.024,-1.4357 0.215,-2.1126c2.37,-6.62 6.32,-10.91 11.72,-12.77c9.78,-3.37 20.32,3.18 20.77,3.46c0.982,0.6454 1.672,1.6503 1.922,2.7988c0.25,1.1485 0.039,2.3491 -0.587,3.344c-0.625,0.9949 -1.616,1.7048 -2.76,1.9773c-1.143,0.2724 -2.348,0.0857 -3.355,-0.5201c-2,-1.27 -8.37,-4.21 -13.1,-2.57c-2.72,0.95 -4.74,3.34 -6.17,7.32c-0.314,0.867 -0.888,1.6163 -1.643,2.1459c-0.755,0.5295 -1.655,0.8138 -2.577,0.8141z" fill="#263238"></path><path d="M219.23,166.25c-0.126,0 -0.25,-0.021 -0.37,-0.06c-0.339,-0.096 -0.627,-0.322 -0.799,-0.63c-0.173,-0.307 -0.216,-0.671 -0.121,-1.01c0.398,-1.082 1.005,-2.074 1.788,-2.92c0.782,-0.847 1.725,-1.53 2.772,-2.01c5.14,-2.65 13,-2.1 23.31,1.63c0.167,0.06 0.32,0.153 0.451,0.273c0.13,0.119 0.236,0.264 0.31,0.425c0.075,0.161 0.117,0.335 0.123,0.512c0.007,0.177 -0.022,0.354 -0.084,0.52c-0.059,0.166 -0.151,0.319 -0.269,0.45c-0.119,0.13 -0.263,0.236 -0.423,0.311c-0.16,0.074 -0.334,0.116 -0.51,0.123c-0.176,0.006 -0.352,-0.022 -0.518,-0.084c-11.83,-4.28 -18,-3.36 -21,-1.82c-1.498,0.635 -2.689,1.83 -3.32,3.33c-0.086,0.286 -0.264,0.535 -0.506,0.708c-0.243,0.174 -0.536,0.262 -0.834,0.252z" fill="#263238"></path><path d="M176.88,161.32c-15.647,1.391 -30.865,5.86 -44.78,13.15c7.72,-1.46 35.35,32.73 42.45,59.09c13.11,-4.85 28.39,-8.16 44.68,-10.75c-9.87,-27.17 -27.92,-57.96 -42.35,-61.49z" fill="#da2626"></path><path d="M176.88,161.32c-15.647,1.391 -30.865,5.86 -44.78,13.15c7.72,-1.46 35.35,32.73 42.45,59.09c13.11,-4.85 28.39,-8.16 44.68,-10.75c-9.87,-27.17 -27.92,-57.96 -42.35,-61.49z" fill="#ffffff" opacity="0.6"></path><path d="M176.88,161.32c-17.08,-1.93 -44.81,12.37 -44.81,12.37c-4.91,3.13 -3.58,9 -0.9,11.49c2.57,-3.69 31.23,-13.29 42,-14.58c-5.35,-4.96 -0.37,-8.6 3.71,-9.28z" fill="#da2626"></path><path d="M176.88,161.32c-17.08,-1.93 -44.81,12.37 -44.81,12.37c-4.91,3.13 -3.58,9 -0.9,11.49c2.57,-3.69 31.23,-13.29 42,-14.58c-5.35,-4.96 -0.37,-8.6 3.71,-9.28z" fill="#ffffff" opacity="0.2"></path><path d="M151.66,203c-0.744,0.003 -1.478,-0.178 -2.136,-0.527c-0.657,-0.349 -1.219,-0.855 -1.634,-1.473c-3.25,-5 -1.22,-12.59 -0.78,-14.07c0.375,-1.098 1.16,-2.008 2.191,-2.54c1.031,-0.532 2.228,-0.644 3.339,-0.313c1.112,0.331 2.053,1.08 2.625,2.089c0.572,1.009 0.732,2.2 0.445,3.324c-0.73,2.51 -0.88,5.72 -0.3,6.6c0.649,0.997 0.876,2.212 0.63,3.376c-0.245,1.165 -0.943,2.184 -1.94,2.834c-0.726,0.469 -1.575,0.713 -2.44,0.7z" fill="#263238"></path></g></g></svg>